<?xml version="1.0" encoding="UTF-8" standalone="no"?>
<!-- Created with Inkscape (http://www.inkscape.org/) -->

<svg
   xmlns:dc="http://purl.org/dc/elements/1.1/"
   xmlns:cc="http://creativecommons.org/ns#"
   xmlns:rdf="http://www.w3.org/1999/02/22-rdf-syntax-ns#"
   xmlns:svg="http://www.w3.org/2000/svg"
   xmlns="http://www.w3.org/2000/svg"
   xmlns:sodipodi="http://sodipodi.sourceforge.net/DTD/sodipodi-0.dtd"
   xmlns:inkscape="http://www.inkscape.org/namespaces/inkscape"
   width="776.11261"
   height="96.487846"
   viewBox="0 0 205.34645 25.529076"
   version="1.1"
   id="svg3750"
   inkscape:version="0.92.0 r15299"
   sodipodi:docname="cloruyt group.svg">
  <defs
     id="defs3744">
    <clipPath
       clipPathUnits="userSpaceOnUse"
       id="clipPath20">
      <path
         d="M 0,0 H 6120 V 1418 H 0 Z"
         id="path18"
         inkscape:connector-curvature="0" />
    </clipPath>
  </defs>
  <sodipodi:namedview
     id="base"
     pagecolor="#ffffff"
     bordercolor="#666666"
     borderopacity="1.0"
     inkscape:pageopacity="0.0"
     inkscape:pageshadow="2"
     inkscape:zoom="1.036025"
     inkscape:cx="387.05629"
     inkscape:cy="47.243924"
     inkscape:document-units="mm"
     inkscape:current-layer="layer1"
     showgrid="false"
     fit-margin-top="0"
     fit-margin-left="0"
     fit-margin-right="0"
     fit-margin-bottom="0"
     units="px"
     inkscape:window-width="1280"
     inkscape:window-height="744"
     inkscape:window-x="-4"
     inkscape:window-y="-4"
     inkscape:window-maximized="1" />
  <metadata
     id="metadata3747">
    <rdf:RDF>
      <cc:Work
         rdf:about="">
        <dc:format>image/svg+xml</dc:format>
        <dc:type
           rdf:resource="http://purl.org/dc/dcmitype/StillImage" />
        <dc:title></dc:title>
      </cc:Work>
    </rdf:RDF>
  </metadata>
  <g
     inkscape:label="Layer 1"
     inkscape:groupmode="layer"
     id="layer1"
     transform="translate(-1.8655635,-150.92326)">
    <g
       id="g3847"
       transform="translate(0.26458743,-0.26458987)">
      <path
         d="m 44.670352,154.99629 c -0.45967,-0.12746 -2.072217,-0.39313 -3.847748,-0.39313 -2.117725,0 -7.040386,0.73832 -7.040386,7.58676 v 3.5209 c 0,7.04356 5.389033,7.5916 7.040386,7.5916 1.959328,0 3.558823,-0.31033 3.862917,-0.39645 0.229658,-0.0703 0.708378,-0.21745 0.708378,-0.802 v -1.59646 c 0,-0.48303 -0.280106,-0.77075 -0.739422,-0.77075 h -0.07408 c -0.518936,0.05 -2.316691,0.19498 -3.711575,0.19498 -2.163939,0 -3.211689,-1.3783 -3.211689,-4.22092 v -3.5209 c 0,-2.87803 1.019528,-4.21608 3.211689,-4.21608 1.394884,0 3.192639,0.14401 3.738386,0.19015 h 0.04727 c 0.459316,0 0.739422,-0.28208 0.739422,-0.76066 v -1.60362 c 0,-0.58431 -0.49777,-0.74003 -0.723547,-0.80342"
         style="fill:#968f86;fill-opacity:1;fill-rule:nonzero;stroke:none;stroke-width:0.03527778"
         id="path22"
         inkscape:connector-curvature="0" />
      <path
         d="m 51.141355,162.3316 c 0,-2.97766 0.988483,-4.30886 3.207808,-4.30886 2.223559,0 3.215217,1.3312 3.215217,4.30886 v 3.23589 c 0,2.98595 -0.991658,4.31673 -3.215217,4.31673 -2.219325,0 -3.207808,-1.33078 -3.207808,-4.31673 z m 3.207808,-7.72844 c -4.567414,0 -7.081661,2.74436 -7.081661,7.72844 v 3.23589 c 0,4.98754 2.514247,7.73493 7.081661,7.73493 4.575881,0 7.086601,-2.74739 7.086601,-7.73493 v -3.23589 c 0,-4.98408 -2.51072,-7.72844 -7.086601,-7.72844"
         style="fill:#968f86;fill-opacity:1;fill-rule:nonzero;stroke:none;stroke-width:0.03527778"
         id="path24"
         inkscape:connector-curvature="0" />
      <path
         d="M 73.895876,169.93174 H 69.49215 c -1.260827,0 -1.608313,-0.39024 -1.608313,-1.79903 v -12.60214 c 0,-0.40541 -0.335492,-0.73751 -0.740481,-0.73751 h -2.366081 c -0.413103,0 -0.739775,0.3321 -0.739775,0.73751 v 12.60214 c 0,4.58308 3.091039,5.16971 5.785203,5.16971 1.320095,0 3.403248,-0.17018 4.128559,-0.34173 0.411692,-0.0857 0.683683,-0.2449 0.683683,-0.75544 v -1.53444 c 0,-0.40859 -0.326319,-0.73907 -0.739069,-0.73907"
         style="fill:#968f86;fill-opacity:1;fill-rule:nonzero;stroke:none;stroke-width:0.03527778"
         id="path26"
         inkscape:connector-curvature="0" />
      <path
         d="m 80.242348,158.04411 c 0.514703,-0.0351 1.425928,-0.0703 1.869017,-0.0703 2.305756,0 3.333045,0.71078 3.333045,2.30241 v 0.21498 c 0,1.85716 -0.872772,2.51724 -3.333045,2.51724 -0.335139,0 -1.335617,-0.0333 -1.869017,-0.0565 z m 5.903031,7.46344 c 2.048581,-0.90262 3.122437,-2.6344 3.122437,-5.01632 v -0.21498 c 0,-3.66117 -2.538589,-5.67309 -7.156451,-5.67309 -1.701094,0 -3.426178,0.11091 -4.735336,0.31185 -0.420511,0.0664 -0.987425,0.23523 -0.987425,0.97522 v 16.47857 c 0,0.41314 0.333728,0.74044 0.738011,0.74044 h 2.399594 c 0.400756,0 0.716139,-0.32494 0.716139,-0.74044 v -6.21383 c 0.109714,0.008 0.226131,0.01 0.350662,0.0209 0.506236,0.028 1.090788,0.0627 1.518355,0.0627 h 0.179211 l 3.371851,6.25119 0.02716,0.0499 c 0.120298,0.24226 0.284339,0.56956 0.689328,0.56956 h 2.920648 c 0.318911,0 0.545747,-0.22532 0.545747,-0.54571 0,-0.0668 0,-0.20189 -0.07937,-0.31531 l -3.620559,-6.74067"
         style="fill:#968f86;fill-opacity:1;fill-rule:nonzero;stroke:none;stroke-width:0.03527778"
         id="path28"
         inkscape:connector-curvature="0" />
      <path
         d="m 104.86694,154.79306 h -2.37207 c -0.41734,0 -0.73907,0.31556 -0.73907,0.71656 v 10.75034 c 0,2.81368 -0.76024,3.76452 -2.994734,3.76452 -2.243314,0 -2.998964,-0.95084 -2.998964,-3.76452 v -10.75034 c 0,-0.401 -0.321733,-0.71656 -0.739069,-0.71656 h -2.371725 c -0.415573,0 -0.743656,0.31556 -0.743656,0.71656 v 10.75034 c 0,4.67543 2.306461,7.04246 6.853414,7.04246 4.539894,0 6.844944,-2.36703 6.844944,-7.04246 v -10.75034 c 0,-0.401 -0.32385,-0.71656 -0.73907,-0.71656"
         style="fill:#968f86;fill-opacity:1;fill-rule:nonzero;stroke:none;stroke-width:0.03527778"
         id="path30"
         inkscape:connector-curvature="0" />
      <path
         d="m 120.74441,154.79306 h -2.6363 c -0.35772,0 -0.6029,0.29721 -0.69674,0.54842 l -2.87373,7.13645 c -0.0956,0.24021 -0.16721,0.30015 -0.16298,0.31835 -0.0229,-0.0182 -0.0928,-0.083 -0.18733,-0.31764 l -2.87302,-7.12996 c -0.0938,-0.25841 -0.33549,-0.55562 -0.6925,-0.55562 h -2.66347 c -0.36689,0 -0.647,0.26662 -0.647,0.61873 0,0.0919 0.0307,0.18256 0.0699,0.29584 l 3.61844,8.3137 c 0.40041,0.9306 0.86043,1.51448 1.43616,1.80979 v 6.53768 c 0,0.4155 0.31962,0.74044 0.71579,0.74044 h 2.39536 c 0.40146,0 0.71967,-0.32494 0.71967,-0.74044 v -6.53768 c 0.57714,-0.29531 1.03258,-0.87919 1.43827,-1.80979 l 3.64667,-8.33437 0.0166,-0.0399 c 0.0233,-0.0602 0.0504,-0.13024 0.0504,-0.23523 0,-0.34561 -0.29986,-0.61873 -0.67416,-0.61873"
         style="fill:#968f86;fill-opacity:1;fill-rule:nonzero;stroke:none;stroke-width:0.03527778"
         id="path32"
         inkscape:connector-curvature="0" />
      <path
         d="m 134.54332,154.79306 h -11.71081 c -0.41275,0 -0.74119,0.31556 -0.74119,0.71656 v 1.89371 c 0,0.3955 0.32103,0.69081 0.74119,0.69081 h 3.92853 v 14.27466 c 0,0.41314 0.3302,0.74044 0.73942,0.74044 h 2.37067 c 0.40957,0 0.74083,-0.3273 0.74083,-0.74044 v -14.27466 h 3.93136 c 0.42086,0 0.74013,-0.29531 0.74013,-0.69081 v -1.89371 c 0,-0.401 -0.32703,-0.71656 -0.74013,-0.71656"
         style="fill:#968f86;fill-opacity:1;fill-rule:nonzero;stroke:none;stroke-width:0.03527778"
         id="path34"
         inkscape:connector-curvature="0" />
      <path
         d="m 147.40948,154.91184 c -1.13418,-0.13053 -2.24367,-0.24049 -4.34622,-0.24049 -1.88066,0 -6.26111,0.76207 -6.26111,7.80729 v 2.97077 c 0,4.96232 2.27824,7.80659 6.26111,7.80659 1.8616,0 2.95239,-0.13988 3.9945,-0.27122 l 0.32879,-0.0441 c 0.36054,-0.0347 0.63747,-0.35373 0.63747,-0.71244 v -8.07392 c 0,-0.40749 -0.28399,-0.71314 -0.66958,-0.71314 h -0.23353 c -0.38206,0 -0.67028,0.30565 -0.67028,0.71314 v 7.39359 c -0.53799,0.0581 -1.66617,0.17872 -3.38737,0.17872 -3.06811,0 -4.68807,-2.1686 -4.68807,-6.27723 v -2.97077 c 0,-5.21035 2.55094,-6.29931 4.68807,-6.29931 1.78364,0 2.53964,0.0768 4.22098,0.24007 h 0.14005 c 0.41311,0 0.62336,-0.21456 0.62336,-0.61969 v -0.24391 c 0,-0.25676 -0.10901,-0.57948 -0.63817,-0.64396"
         style="fill:#968f86;fill-opacity:1;fill-rule:nonzero;stroke:none;stroke-width:0.03527778"
         id="path36"
         inkscape:connector-curvature="0" />
      <path
         d="m 152.93821,156.27747 c 0.73131,-0.0561 1.90747,-0.0775 2.8261,-0.0775 3.73804,0 5.19466,1.01495 5.19466,3.61806 v 0.12015 c 0,2.70965 -1.30916,3.61873 -5.19466,3.61873 -0.35807,0 -0.97684,-0.004 -1.58891,-0.008 -0.46284,-0.007 -0.91087,-0.0131 -1.23719,-0.0131 z m 5.48287,8.60997 c 2.80741,-0.58427 4.11939,-2.1693 4.11939,-4.94923 v -0.12015 c 0,-3.60398 -2.02953,-5.14671 -6.77616,-5.14671 -1.01952,0 -2.90512,0.0538 -3.76378,0.0999 -0.34749,0.0386 -0.64417,0.36725 -0.64417,0.71865 v 16.90165 c 0,0.40584 0.29668,0.71769 0.67027,0.71769 h 0.24166 c 0.37359,0 0.66992,-0.31185 0.66992,-0.71769 v -7.32151 c 0.60325,0 2.08633,0.0138 2.8261,0.0138 h 0.88795 l 5.03167,7.7101 c 0.0931,0.11991 0.33513,0.31531 0.57114,0.31531 h 0.31292 c 0.37676,0 0.64205,-0.25357 0.64205,-0.61944 0,-0.13642 -0.0547,-0.29146 -0.16474,-0.4754 l -4.62422,-7.12696"
         style="fill:#968f86;fill-opacity:1;fill-rule:nonzero;stroke:none;stroke-width:0.03527778"
         id="path38"
         inkscape:connector-curvature="0" />
      <path
         d="m 171.59698,171.72664 c -3.1944,0 -4.81365,-2.10563 -4.81365,-6.27723 v -2.97077 c 0,-4.16581 1.61925,-6.27864 4.81365,-6.27864 3.19229,0 4.81648,2.11283 4.81648,6.27864 v 2.97077 c 0,4.1716 -1.62419,6.27723 -4.81648,6.27723 z m 0,-17.05529 c -4.12327,0 -6.39692,2.77537 -6.39692,7.80729 v 2.97077 c 0,5.03051 2.27365,7.80659 6.39692,7.80659 4.11939,0 6.38634,-2.77608 6.38634,-7.80659 v -2.97077 c 0,-5.03192 -2.26695,-7.80729 -6.38634,-7.80729"
         style="fill:#968f86;fill-opacity:1;fill-rule:nonzero;stroke:none;stroke-width:0.03527778"
         id="path40"
         inkscape:connector-curvature="0" />
      <path
         d="m 192.00341,154.79306 h -0.24482 c -0.37077,0 -0.66746,0.31556 -0.66746,0.71656 v 11.01947 c 0,3.6128 -1.33456,5.22443 -4.33776,5.22443 -2.96968,0 -4.35962,-1.66631 -4.35962,-5.22443 v -11.01947 c 0,-0.39317 -0.30057,-0.71656 -0.66711,-0.71656 h -0.24024 c -0.37394,0 -0.67063,0.31556 -0.67063,0.71656 v 11.01947 c 0,4.39872 2.05317,6.72691 5.9376,6.72691 3.86751,0 5.91609,-2.32819 5.91609,-6.72691 v -11.01947 c 0,-0.401 -0.29281,-0.71656 -0.66605,-0.71656"
         style="fill:#968f86;fill-opacity:1;fill-rule:nonzero;stroke:none;stroke-width:0.03527778"
         id="path42"
         inkscape:connector-curvature="0" />
      <path
         d="m 199.90281,164.13295 c -0.7246,0 -1.64147,-0.0416 -2.35232,-0.0767 v -7.8686 c 0.63959,-0.0397 1.45027,-0.0562 2.35232,-0.0562 3.6957,0 5.20242,1.06179 5.20242,3.6667 v 0.40651 c 0,2.79149 -1.50672,3.92835 -5.20242,3.92835 z m 0,-9.4616 c -0.98813,0 -2.32445,0.0703 -3.28118,0.12171 -0.34678,0.0406 -0.64206,0.36586 -0.64206,0.71656 v 16.88193 c 0,0.40584 0.29528,0.71769 0.66781,0.71769 h 0.23813 c 0.37747,0 0.66498,-0.31185 0.66498,-0.71769 v -6.87779 c 0.49213,0.0276 1.40229,0.0776 2.35232,0.0776 4.56424,0 6.78004,-1.76361 6.78004,-5.38674 v -0.40651 c 0,-3.40032 -2.27859,-5.12674 -6.78004,-5.12674"
         style="fill:#968f86;fill-opacity:1;fill-rule:nonzero;stroke:none;stroke-width:0.03527778"
         id="path44"
         inkscape:connector-curvature="0" />
      <path
         d="m 18.308325,163.95353 c 0,2.1783 -1.767346,3.94356 -3.951958,3.94356 -2.176886,0 -3.944479,-1.76526 -3.944479,-3.94356 0,-2.18115 1.767593,-3.94709 3.944479,-3.94709 0.475862,0 0.931016,0.0838 1.34814,0.23633 l 3.616678,-7.75529 c -1.52273,-0.66146 -3.196801,-1.03505 -4.964818,-1.03505 -6.8994165,0 -12.4908035,5.59784 -12.4908035,12.5011 0,6.89917 5.591387,12.49881 12.4908035,12.49881 6.907566,0 12.506114,-5.59964 12.506114,-12.49881 0,-0.95469 -0.116064,-1.88556 -0.318911,-2.77922 h -9.380009 c 0.708872,0.71081 1.144764,1.69471 1.144764,2.77922"
         style="fill:#968f86;fill-opacity:1;fill-rule:nonzero;stroke:none;stroke-width:0.03527778"
         id="path46"
         inkscape:connector-curvature="0" />
    </g>
  </g>
</svg>
