<svg class="Logo-object" id="Logo" viewBox="0 0 200.87 74.02" xmlns="http://www.w3.org/2000/svg"><path d="M42 0a16.24 16.24 0 00-16 16.43v10.28h-9.41v6.16H26v8.28H16A16.44 16.44 0 0016 74a16.24 16.24 0 0016-16.41V47.31h9.42v-6.16H32v-8.28h10a16.23 16.23 0 0016-16.44A16.23 16.23 0 0042 0M26 57.59a10.16 10.16 0 01-10 10.28 10.28 10.28 0 010-20.56h10zm16-30.88H32V16.43a10 10 0 1120 0 10.16 10.16 0 01-10 10.28m26.1.29h21.74v5.81H74.57v8.44h12.17V47H74.57v14H68.1zM92 27h6.46v34H92zm50.37 20.12L151.65 61h-7.43l-.05-.09-5.65-9-5.69 9h-7.17l9.19-13.73L126 34h7.42l.06.09 5.24 8.39L144 34h7.21zM164.63 45c3.84 1.31 7.93 3.11 7.93 7.87 0 7.83-7 8.68-10 8.68a18.21 18.21 0 01-11-3.78l-.14-.1 2.85-4.51.16.11a15.24 15.24 0 008.29 3c3.3 0 3.66-1.75 3.66-2.5 0-1.94-2.27-2.63-4.89-3.43l-1-.31c-4.06-1.23-7.81-3-7.81-8 0-5.89 4.78-8.52 9.51-8.52a18.28 18.28 0 019.44 2.84l.15.09-2.55 4.74-.16-.09a15.54 15.54 0 00-7-2.35c-2.4 0-3.25 1.27-3.25 2.35 0 1.82 2.18 2.58 4.95 3.54l.85.3m22.58-11.48a14 14 0 1013.67 14 13.87 13.87 0 00-13.67-14m0 22.18a8.14 8.14 0 117.93-8.14 8 8 0 01-7.93 8.14m-67-3.24a7.58 7.58 0 01-6.14 3.21 7.48 7.48 0 01-7.15-6h19.78v-.12a14.85 14.85 0 00.15-2c0-7.63-5.75-13.85-12.83-13.85s-12.86 6.22-12.86 13.85 5.85 13.83 12.91 13.83a13 13 0 0011.08-6.55l.07-.13-4.94-2.33zm-12.84-8.06a7 7 0 0113.4 0z"></path></svg>