<?xml version="1.0" standalone="no"?>
<!DOCTYPE svg PUBLIC "-//W3C//DTD SVG 20010904//EN"
 "http://www.w3.org/TR/2001/REC-SVG-20010904/DTD/svg10.dtd">
<svg version="1.0" xmlns="http://www.w3.org/2000/svg"
 width="225.000000pt" height="225.000000pt" viewBox="0 0 225.000000 225.000000"
 preserveAspectRatio="xMidYMid meet">
<metadata>
Created by potrace 1.10, written by Peter Selinger 2001-2011
</metadata>
<g transform="translate(0.000000,225.000000) scale(0.100000,-0.100000)"
fill="#000000" stroke="none">
<path d="M100 1200 l0 -270 60 0 60 0 0 55 0 55 109 0 c66 0 112 -4 116 -10 4
-6 -4 -25 -17 -43 -45 -60 -50 -57 83 -57 l121 0 -24 33 c-37 49 -39 54 -24
66 11 10 22 1 53 -44 l38 -56 53 3 c28 2 52 2 52 0 0 -2 -25 -37 -55 -78 l-55
-74 64 0 65 0 39 55 40 55 37 -55 38 -55 64 0 c49 0 62 3 57 13 -7 11 -105
147 -125 173 -5 6 6 30 25 58 l34 47 11 -34 c13 -39 54 -81 94 -96 16 -6 56
-11 90 -11 77 0 141 27 165 70 18 31 32 39 32 17 0 -18 49 -64 83 -76 41 -16
172 -14 211 3 19 8 44 28 57 45 l22 31 18 -29 c24 -40 85 -61 175 -61 119 0
184 43 184 120 0 71 -23 87 -202 135 -46 12 -58 20 -58 36 0 42 88 52 126 14
20 -20 35 -25 74 -25 59 0 64 12 23 61 -36 43 -79 59 -158 59 -86 0 -140 -26
-162 -78 -34 -81 12 -135 135 -161 84 -18 112 -31 112 -52 0 -52 -143 -51
-157 1 -4 17 -14 20 -58 20 -50 0 -53 1 -58 30 -8 37 -53 61 -159 85 -92 20
-114 38 -79 66 13 11 34 19 47 19 32 0 74 -21 74 -37 0 -9 16 -13 55 -13 46 0
55 3 55 18 0 55 -81 101 -178 102 -110 0 -172 -44 -172 -124 1 -68 31 -90 168
-121 86 -20 107 -39 73 -66 -37 -30 -96 -25 -133 11 -29 29 -32 30 -128 30
-87 0 -101 -2 -109 -19 -27 -50 -129 -44 -156 9 -28 55 -28 55 130 53 165 -2
155 -8 134 87 -20 95 -81 140 -189 140 -99 0 -158 -37 -185 -117 -10 -29 -19
-39 -38 -41 -17 -2 -36 -19 -59 -52 -18 -27 -36 -50 -39 -50 -4 0 -22 22 -40
49 -33 49 -35 50 -91 53 l-57 3 54 72 c30 40 55 75 55 78 0 3 -28 5 -62 5
l-63 0 -35 -51 c-18 -28 -37 -52 -41 -55 -4 -2 -24 21 -45 51 l-37 55 -65 0
c-62 0 -64 -1 -51 -20 8 -10 40 -55 72 -98 37 -52 55 -85 51 -96 -3 -9 -9 -16
-13 -16 -3 1 -64 84 -136 185 l-130 184 -72 0 -73 1 0 -270z m112 232 c16 -7
62 -65 163 -207 102 -144 138 -170 170 -121 15 22 15 27 0 57 -10 18 -30 50
-46 72 -16 22 -29 44 -29 49 0 20 27 5 66 -37 22 -25 50 -45 61 -45 11 0 39
20 61 46 75 81 68 26 -10 -88 -18 -26 -18 -29 -2 -59 9 -18 29 -50 45 -72 16
-22 29 -44 29 -49 0 -21 -31 -4 -64 37 -21 25 -45 45 -53 45 -26 0 -53 -31
-53 -62 0 -26 -3 -28 -41 -28 -39 0 -40 1 -34 28 4 20 0 36 -13 53 -18 21 -29
24 -122 27 -94 4 -103 2 -126 -19 -13 -12 -27 -37 -30 -56 -7 -36 -37 -47 -48
-17 -3 9 -6 107 -6 219 0 172 2 206 16 219 16 17 38 19 66 8z m931 -162 c-49
-30 -70 -89 -42 -117 9 -9 8 -19 -5 -38 -23 -35 -14 -70 27 -114 31 -32 31
-33 7 -26 -24 6 -45 25 -98 89 -27 32 -46 25 -87 -28 -34 -45 -32 -74 15 -144
22 -33 40 -62 40 -66 0 -18 -29 -1 -66 39 -22 25 -48 45 -57 45 -8 0 -33 -21
-56 -46 -22 -25 -47 -44 -55 -42 -12 2 -5 21 30 81 l46 79 -29 46 c-16 26 -37
59 -47 74 -32 48 2 41 54 -13 l50 -51 26 17 c15 9 40 32 56 51 16 18 38 36 49
39 11 4 31 29 45 56 25 51 72 89 109 89 16 0 14 -4 -12 -20z m154 0 c63 -38
83 -122 31 -128 -25 -3 -26 -2 -21 37 5 35 2 44 -26 71 -46 46 -39 54 16 20z
m213 5 c0 -3 -7 -17 -17 -31 -15 -24 -15 -27 4 -52 12 -17 38 -32 69 -40 112
-32 148 -48 168 -75 23 -31 18 -47 -27 -81 -33 -24 -44 -16 -22 17 32 49 -9
87 -122 112 -115 26 -149 69 -102 129 18 23 49 36 49 21z m367 -13 c-44 -49 3
-100 115 -127 98 -23 118 -37 118 -80 0 -38 -28 -75 -57 -75 -15 0 -15 1 0 18
45 50 3 100 -107 126 -88 20 -126 46 -126 84 0 28 35 72 58 72 13 0 12 -3 -1
-18z m-620 -34 c46 -52 41 -58 -57 -58 -50 0 -90 4 -90 9 0 5 12 23 26 40 33
39 89 43 121 9z m-451 -264 c-3 -8 -9 -14 -13 -13 -4 0 -36 41 -71 90 -51 72
-61 93 -52 104 10 12 24 -2 77 -76 37 -51 62 -97 59 -105z m685 36 c14 -11 18
-19 11 -20 -19 0 -52 19 -52 30 0 16 16 12 41 -10z m379 0 c14 -10 22 -21 20
-24 -7 -7 -70 25 -70 35 0 15 24 10 50 -11z"/>
<path d="M207 1342 c-13 -15 -17 -39 -17 -114 0 -118 10 -132 100 -133 62 0
100 21 100 55 0 28 -139 210 -160 210 -4 0 -14 -8 -23 -18z m26 -14 c3 -7 35
-53 71 -101 36 -49 66 -91 66 -93 0 -2 -33 -4 -74 -4 l-75 0 -3 105 c-3 96 2
125 15 93z"/>
<path d="M1400 877 c0 -18 -5 -23 -27 -22 -25 0 -28 -3 -28 -35 0 -33 2 -35
35 -36 l35 -2 0 59 c0 32 -3 59 -7 59 -5 0 -8 -10 -8 -23z m-5 -57 c0 -28 -29
-40 -38 -15 -9 22 3 46 22 43 10 -2 16 -13 16 -28z"/>
<path d="M1700 865 c-9 -11 -9 -15 -1 -15 6 0 11 -15 11 -34 0 -21 6 -36 15
-40 8 -3 15 -1 15 4 0 6 -4 10 -10 10 -12 0 -13 57 -1 62 5 2 3 8 -4 15 -10
10 -16 9 -25 -2z"/>
<path d="M1140 820 c0 -22 5 -40 10 -40 6 0 10 18 10 40 0 22 -4 40 -10 40 -5
0 -10 -18 -10 -40z"/>
<path d="M1214 819 c-2 -47 13 -52 18 -6 2 20 8 32 18 32 10 0 16 -12 18 -32
4 -40 22 -44 22 -5 0 39 -11 51 -45 50 -28 -1 -30 -4 -31 -39z"/>
<path d="M1472 823 c3 -35 5 -38 36 -39 31 -1 32 1 32 38 0 21 -3 38 -8 38 -4
0 -7 -15 -7 -32 0 -23 -5 -34 -17 -36 -15 -3 -18 4 -18 32 0 20 -5 36 -11 36
-6 0 -9 -16 -7 -37z"/>
<path d="M1600 841 c0 -10 7 -21 15 -25 22 -8 18 -24 -7 -29 -16 -4 -13 -5 7
-4 36 2 47 32 16 42 -28 8 -27 23 2 28 19 4 18 4 -5 6 -21 1 -28 -4 -28 -18z"/>
<path d="M1790 820 c0 -22 5 -40 10 -40 6 0 10 13 10 30 0 17 7 33 18 39 14 9
13 10 -10 11 -26 0 -28 -3 -28 -40z"/>
<path d="M1880 820 c0 -22 5 -40 10 -40 6 0 10 18 10 40 0 22 -4 40 -10 40 -5
0 -10 -18 -10 -40z"/>
<path d="M1962 848 c-7 -7 -12 -20 -12 -29 0 -23 38 -49 59 -41 13 5 11 7 -8
12 -37 9 -38 30 -1 30 28 0 30 2 20 20 -12 22 -40 26 -58 8z"/>
<path d="M2074 848 c-4 -6 2 -19 14 -29 28 -22 27 -27 0 -31 -19 -3 -20 -4 -6
-10 9 -4 24 0 35 8 17 13 17 15 -4 33 -28 23 -28 28 -5 34 13 4 12 5 -5 6 -12
0 -25 -4 -29 -11z"/>
</g>
</svg>
